<svg viewBox="-2 0 512 512.0009" xmlns="http://www.w3.org/2000/svg"><path d="m485.304688 303.042969c-19.011719-25.011719-47.78125-37.691407-85.507813-37.691407-43.683594 0-84.324219 19.613282-111.433594 53.136719-18.296875-10.097656-38.757812-15.375-59.984375-15.375-24 0-47.542968 7.003907-67.566406 19.925781 2.234375-41.367187.574219-107.121093-23.71875-166.148437 6.914062-7.445313 21.039062-18.550781 40.535156-13.3125 15.84375 4.257813 32.660156-.65625 43.886719-12.820313 22.417969-24.28125 29.046875-52.699218 18.664063-80.019531-16.464844-43.320312-45.980469-50.375-62.109376-50.722656-21.222656-.445313-45.257812 9.5-67.699218 28.042969-19.859375 16.414062-36.347656 37.664062-45.230469 58.308594-13.679687 31.785156-32.714844 115.757812-45.511719 184.878906-10.050781 54.289062-25.652344 149.507812-17.210937 177.238281 1.753906 5.761719 6.703125 9.980469 12.675781 10.792969.492188.066406 50.316406 7.082031 113.558594 35.316406 24.378906 10.882812 72.550781 17.40625 125 17.40625 8.902344 0 17.933594-.1875 26.984375-.574219 43.691406-1.863281 124.910156-10.132812 177.960937-44.546875 32.757813-21.246094 50.074219-50.019531 50.074219-83.199218 0-32.648438-8.082031-60.53125-23.367187-80.636719zm-43.496094 137.953125c-81.121094 52.621094-256.9375 44.910156-300.578125 25.425781-49.523438-22.109375-91.074219-31.949219-110.410157-35.714844-.894531-21.554687 4.339844-73.886719 19.144532-153.84375 14.53125-78.496093 32.832031-153.480469 43.511718-178.300781 13.589844-31.566406 52.652344-67.714844 83.105469-67.714844.273438 0 .550781.003906.820313.011719 5.542968.117187 22.402344.484375 33.9375 30.839844 6.179687 16.261719 1.976562 32.457031-12.492188 48.132812-3.371094 3.648438-8.554687 5.203125-13.214844 3.949219-40-10.75-69.445312 16.660156-79.429687 32.652344-2.738281 4.390625-3.09375 9.859375-.949219 14.566406 35.300782 77.425781 24.179688 175.273438 21.492188 194.722656-9.53125 13.464844-16.378906 28.769532-19.953125 44.953125-1.835938 8.320313 3.417969 16.554688 11.738281 18.390625 8.320312 1.832032 16.550781-3.417968 18.386719-11.738281 9.386719-42.511719 47.851562-73.363281 91.460937-73.363281 19.875 0 38.859375 6.148437 54.898438 17.777344.078125.054687.160156.097656.238281.152343.078125.054688.152344.121094.234375.175781 10.703125 7.164063 24.542969 24.703126 28.96875 30.851563 3.011719 4.195313 7.742188 6.425781 12.539062 6.425781 3.117188 0 6.261719-.9375 8.988282-2.894531 6.917968-4.972656 8.5-14.609375 3.527344-21.53125-1.476563-2.058594-11.929688-16.398437-24.398438-28.269531 21.277344-25.542969 52.691406-40.449219 86.421875-40.449219 64.484375 0 78.023437 47.570313 78.023437 87.476563 0 22.851562-11.78125 41.597656-36.011718 57.316406zm0 0"/></svg>